<?xml version="1.0" encoding="UTF-8"?>
<svg enable-background="new 0 0 319.801 319.801" version="1.1" viewBox="0 0 319.8 319.8" xml:space="preserve" xmlns="http://www.w3.org/2000/svg">

	<g fill="#010002">
		<path d="m252.6 0h-185.41c-37.111 0-67.194 30.083-67.194 67.2v185.4c0 37.111 30.083 67.2 67.2 67.2h185.4c37.111 0 67.2-30.083 67.2-67.2v-185.4c0-37.117-30.089-67.2-67.2-67.2zm-46.52 148.22v17.508h-55.75v-27.816l-28.202 40.673 39.275 25.672h0.06l-0.288 58.666-18.128-0.087 0.228-48.767-28.093-18.362-12.064-7.887 0.816 27.636h0.071l0.457 18.123-68.38 1.724-0.457-18.123 50.186-1.262-1.469-49.653h0.016l-0.016-0.011 30.839-44.475 8.403-12.124-8.403 0.196-28.822 0.669 1.235 40.189-17.497 0.538-1.24-40.32-0.473-15.403 17.497-0.538 5e-3 0.136 29.996-0.696 18.313-0.424 0.011 0.343 0.239-0.343 31.226 21.653h0.065v32.58h40.342v-0.015zm-90.893 95.972 0.43-0.011-0.272-10.873-0.152-6.097v-18.504l17.187 11.232-0.201 42.849-0.049 10.878 10.878 0.049 18.128 0.087 10.878 0.049 0.049-10.878 0.277-58.666 0.027-5.39c-3.568-2.306-7.065-4.699-10.421-7.305l-24.503-16.018 2.018-2.91v3.916h77.506v-39.259h-40.341v-27.185c-2.529-1.713-4.998-3.514-7.408-5.396h-0.131l-21.038-14.588c-0.99-0.582-1.73-1.142-2.42-1.681l-0.713-0.495v-0.049c-2.807-2.127-6.021-3.78-24.046-4.378-0.234-5e-3 -0.408-0.087-0.609-0.136l-2.214 0.049c0.136-0.517 0.256-1.05 0.402-1.561-0.446-1.159-0.092-2.589 1.023-3.318 10.9-32.683 41.685-56.278 78.034-56.278 45.454 0 82.304 36.85 82.304 82.304v170.61h-164.62v-31.05z"/>
		<path d="m180.62 34.337c-18.493 0-33.543 15.044-33.543 33.543 0 6.614 1.947 12.765 5.265 17.965 1.675 2.622 3.699 4.993 6.016 7.054 2.116 1.887 4.465 3.508 7.005 4.814 2.219 1.137 4.58 2.023 7.054 2.649 2.633 0.664 5.368 1.055 8.202 1.055 18.493 0 33.543-15.044 33.543-33.543s-15.044-33.537-33.542-33.537zm0 56.202c-2.861 0-5.575-0.587-8.099-1.556-2.159-0.832-4.123-2.002-5.907-3.416-5.238-4.15-8.659-10.492-8.659-17.693 0-12.515 10.144-22.665 22.665-22.665s22.665 10.144 22.665 22.665-10.144 22.665-22.665 22.665z"/>
	</g>
















</svg>
