<?xml version="1.0" encoding="UTF-8"?>
<svg width="489pt" height="489pt" viewBox="0 -4 489.25 489" xmlns="http://www.w3.org/2000/svg">
<path d="m240.02 205.52c1.7109-7.6289-0.40625-15.617-5.6719-21.398 2.8086-2.9688 4.7656-6.6406 5.6719-10.625 1.6992-7.625-0.41406-15.598-5.6719-21.375 2.8086-2.9688 4.7656-6.6406 5.6719-10.625 1.6367-7.125-0.0625-14.609-4.6172-20.328s-11.469-9.0508-18.781-9.0469h-68v-61.359c-0.035156-27.953-22.688-50.605-50.641-50.641h-1.1211c-5.0703-0.007812-9.9336 2.0195-13.492 5.6289-3.5625 3.6094-5.5234 8.5-5.4414 13.57 1.3711 15.262 1.4297 30.617 0.16797 45.887-2.5156 6.6016-5.8477 12.859-9.9141 18.633-6.5977 10.434-14.555 19.941-23.656 28.281h-26.465c-7.3945-0.015625-13.406 5.9609-13.438 13.359v117.28c0.023438 2.082 0.53906 4.1289 1.5039 5.9766-8.0977 20.43-8.1719 43.164-0.20703 63.645l0.0625 0.26562 26.199 98.961-13.32 58.742c-0.53516 2.3711 0.035157 4.8594 1.5508 6.7617 1.5195 1.8984 3.8164 3.0078 6.25 3.0078h78.945c3.4648 0 6.5352-2.2344 7.6055-5.5273l16.387-50.473h44.863c12.234-0.007812 22.148-9.9258 22.16-22.16v-38.543l6.9414-7c2.6758-2.6992 3.082-6.9062 0.97656-10.066l-20-30.117c8.3984-18.941 9.7578-40.258 3.8398-60.113h27.359c11.457 0.21094 21.539-7.5195 24.305-18.641 1.6914-7.6133-0.44141-15.57-5.7109-21.32 2.8164-2.9727 4.7812-6.6484 5.6875-10.641zm-52.406 144.27-4.6719 4.7031c-1.4883 1.5-2.3203 3.5234-2.3203 5.6328v41.84c0 3.4023-2.7578 6.1602-6.1602 6.1602h-50.641c-3.4648 0-6.5391 2.2305-7.6094 5.5273l-16.391 50.473h-63.145l11.543-50.898c0.28125-1.2578 0.25781-2.5664-0.070312-3.8125l-26.383-99.691c-0.082031-0.71875-0.25781-1.4258-0.52344-2.1016-3.4414-8.5352-5.2227-17.652-5.2461-26.855 1.1836-43.043 36.953-77.027 80-76 43.047-1.0273 78.816 32.957 80 76-0.011719 11.34-2.6992 22.516-7.8398 32.621-1.2305 2.4922-1.082 5.4414 0.39062 7.793 0.19531 0.32422 0.41797 0.62891 0.66406 0.91406zm29.008-125.66c2.4531 0.035156 4.7617 1.1797 6.2734 3.1133 1.5156 1.9336 2.0703 4.4453 1.5156 6.8398-1.1758 3.7539-4.7383 6.2383-8.6719 6.0469h-33.766c-16.844-31.812-49.992-51.602-85.984-51.336-29.125-0.13281-56.777 12.785-75.367 35.207v-95.871h26.957c1.9414 0 3.8164-0.70703 5.2734-1.9844 11.215-9.8398 20.953-21.238 28.922-33.848 5.1602-7.2344 9.1875-15.215 11.941-23.664 1.5625-16.582 1.625-33.27 0.18359-49.863 0.097656-1.543 1.418-2.7227 2.9609-2.6406h1.1211c19.125 0.015625 34.621 15.516 34.641 34.641v69.359c0 4.418 3.582 8 8 8h76c2.1211-0.003906 4.1562 0.84375 5.6484 2.3516 1.9844 1.9727 2.793 4.8398 2.1328 7.5586-1.1719 3.7617-4.7344 6.2617-8.6719 6.0898h-27.109v16h28c2.1211-0.003906 4.1562 0.84375 5.6484 2.3516 1.9844 1.9727 2.793 4.8398 2.1328 7.5586-1.1719 3.7617-4.7344 6.2617-8.6719 6.0898h-27.109v16h28c2.1211-0.003906 4.1562 0.84375 5.6484 2.3516 1.9844 1.9727 2.793 4.8398 2.1328 7.5586-1.1719 3.7617-4.7344 6.2617-8.6719 6.0898h-27.109v16z"/>
<path d="m4.625 16.125h16v16h-16z"/>
<path d="m36.625 16.125h16v16h-16z"/>
<path d="m20.625 0.125h16v16h-16z"/>
<path d="m20.625 32.125h16v16h-16z"/>
<path d="m180.62 40.125h16v16h-16z"/>
<path d="m212.62 40.125h16v16h-16z"/>
<path d="m196.62 24.125h16v16h-16z"/>
<path d="m196.62 56.125h16v16h-16z"/>
<path d="m468.62 16.125h16v16h-16z"/>
<path d="m436.62 16.125h16v16h-16z"/>
<path d="m452.62 0.125h16v16h-16z"/>
<path d="m452.62 32.125h16v16h-16z"/>
<path d="m292.62 40.125h16v16h-16z"/>
<path d="m260.62 40.125h16v16h-16z"/>
<path d="m276.62 24.125h16v16h-16z"/>
<path d="m276.62 56.125h16v16h-16z"/>
<path d="m483.12 248.74c0.96094-1.8477 1.4766-3.8945 1.5039-5.9766v-117.28c-0.03125-7.3984-6.043-13.375-13.441-13.359h-26.465c-9.1211-8.3594-17.094-17.895-23.703-28.352-4.0469-5.75-7.3594-11.98-9.8555-18.555-1.2734-15.461-1.2109-31.004 0.18359-46.453-0.10156-10.379-8.582-18.715-18.961-18.641h-1.1172c-27.953 0.035156-50.605 22.688-50.641 50.641v61.359h-68c-7.3164-0.003906-14.238 3.3281-18.793 9.0547-4.5586 5.7227-6.2539 13.215-4.6094 20.344 0.91016 3.9766 2.8711 7.6367 5.6719 10.602-5.2539 5.7773-7.3711 13.75-5.6719 21.375 0.90625 3.9844 2.8672 7.6562 5.6719 10.625-5.2539 5.7773-7.3711 13.75-5.6719 21.375 0.91016 3.9961 2.8789 7.6758 5.6992 10.648-5.2734 5.7461-7.4102 13.699-5.7227 21.312 2.7578 11.129 12.84 18.871 24.305 18.664h27.359c-5.9023 19.859-4.5273 41.176 3.8789 60.113l-20.039 30.117c-2.1055 3.1602-1.6953 7.3672 0.97656 10.066l6.9453 7v38.543c0.007812 12.234 9.9258 22.152 22.16 22.16h44.863l16.383 50.473c1.0703 3.293 4.1445 5.5273 7.6094 5.5273h78.941c2.4336 0 4.7344-1.1094 6.25-3.0078 1.5195-1.9023 2.0898-4.3906 1.5508-6.7617l-13.32-58.742 26.203-98.961 0.0625-0.26562c7.9648-20.48 7.8906-43.215-0.20703-63.645zm-209.62-8.6172c-3.9297 0.19141-7.4922-2.293-8.6719-6.0469-0.64062-2.7266 0.17578-5.5938 2.1602-7.5703 1.4727-1.5117 3.4883-2.375 5.6016-2.3984h28.031v-15.984h-27.113c-3.9375 0.17188-7.4961-2.3281-8.6719-6.0898-0.66016-2.7188 0.14453-5.5859 2.1289-7.5586 1.4961-1.5078 3.5312-2.3555 5.6562-2.3516h28v-16h-27.113c-3.9375 0.17188-7.4961-2.3281-8.6719-6.0898-0.66016-2.7188 0.14453-5.5859 2.1289-7.5586 1.4961-1.5078 3.5312-2.3555 5.6562-2.3516h28v-16h-27.113c-3.9375 0.17188-7.4961-2.3281-8.6719-6.0898-0.66016-2.7188 0.14453-5.5859 2.1289-7.5586 1.4961-1.5078 3.5312-2.3555 5.6562-2.3516h76c4.418 0 8-3.582 8-8v-69.359c0.015625-19.125 15.516-34.625 34.641-34.641h1.1172c1.6016 0 2.9609 1.1836 2.9766 2.0781-1.4492 16.773-1.3906 33.641 0.16797 50.402 2.7656 8.4883 6.8125 16.508 12 23.773 7.9531 12.57 17.668 23.93 28.848 33.738 1.4609 1.2891 3.3398 2.0039 5.2891 2.0078h26.961v95.871c-20.809-24.949-52.629-37.953-84.953-34.723-32.324 3.2305-60.945 22.277-76.398 50.852zm194.5 67.52c-0.26562 0.67578-0.4375 1.3828-0.51953 2.1055l-26.402 99.664c-0.32422 1.2461-0.35156 2.5547-0.070313 3.8125l11.559 50.898h-63.141l-16.387-50.473c-1.0664-3.2852-4.1211-5.5156-7.5742-5.5273h-50.68c-3.4023 0-6.1602-2.7578-6.1602-6.1602v-41.84c-0.011719-2.0977-0.84375-4.1094-2.3203-5.6016l-4.6719-4.7031 18.191-27.414c0.33984-0.375 0.64453-0.77734 0.91016-1.2031 1.457-2.3633 1.5859-5.3125 0.33594-7.7891-5.1406-10.109-7.8281-21.285-7.8398-32.625 2.1758-42.598 37.348-76.023 80-76.023 42.656 0 77.828 33.426 80 76.023-0.015625 9.2031-1.793 18.316-5.2305 26.855z"/>
</svg>
